# Blender 5.0.1
# www.blender.org
mtllib shitass_rock.mtl
o Cube
v -0.582505 -0.086516 0.438894
v -0.252808 -0.056176 0.747523
v -1.061644 0.551344 0.311844
v -1.037531 0.838441 0.110946
v -1.098816 0.896102 -0.227882
v -0.508128 -0.087322 -0.423995
v -0.513468 1.101064 -0.746228
v 0.166098 1.296857 -0.706188
v 0.594457 0.141244 -0.724746
v 0.537823 -0.040731 -0.620843
v 0.797846 -0.046708 -0.080704
v 0.644336 0.051402 0.655215
v -0.745396 0.104072 0.581799
v 0.626784 1.192562 -0.563829
v 0.664530 0.917512 -0.662077
v 0.688592 0.587842 0.544647
v 0.283455 0.410681 0.800786
v -0.270569 0.655101 0.670245
v -0.786610 0.606635 0.525487
v -0.681995 0.796948 -0.770250
v -0.269427 0.940126 -0.896109
v 0.183138 0.984722 -0.894198
v -1.000504 0.825917 -0.551233
v -1.199147 0.624459 -0.051895
v -1.096018 0.668507 -0.390459
v 0.867563 0.846207 -0.280981
v 0.702162 1.210669 -0.116019
v 0.874338 0.764656 0.174039
v 0.696733 0.988010 0.255905
v 0.382517 1.080038 0.320943
v 0.113818 -0.108608 -0.557883
v 0.391845 -0.122170 0.346351
v 0.508889 1.316012 -0.449219
v -0.591404 1.181943 -0.596502
v 0.226086 1.373058 -0.334059
v -0.451451 1.165552 -0.029084
v 0.303958 0.006855 0.815430
v -0.329595 0.095147 0.862344
v 0.813253 0.138432 -0.452563
v 0.909237 0.133408 -0.087802
v 0.863460 0.102225 0.309050
v -0.571515 0.046588 -0.720842
v -0.055146 -0.031459 -0.805413
v -0.195672 0.112355 -0.899334
v 0.292859 0.131046 -0.871482
v -0.880036 0.060544 0.244964
v -0.859583 0.001067 -0.160414
v -0.790155 0.036432 -0.440155
vn -0.8526 0.3458 0.3918
vn -0.8759 -0.4817 0.0265
vn -0.8753 -0.4025 -0.2681
vn -0.6823 -0.2770 -0.6765
vn -0.5619 0.5694 -0.6001
vn -0.8469 -0.3659 0.3858
vn -0.3662 0.2732 -0.8895
vn -0.0470 0.5135 -0.8568
vn 0.4458 0.3547 -0.8218
vn 0.3569 0.4962 -0.7915
vn -0.5697 -0.1372 -0.8103
vn 0.3365 0.7929 -0.5080
vn 0.8703 0.2672 -0.4137
vn 0.9185 0.3913 0.0565
vn 0.7387 0.3845 0.5536
vn 0.9933 0.0072 0.1151
vn 0.9670 -0.0125 -0.2546
vn 0.2728 0.5335 0.8006
vn -0.2424 0.7527 0.6121
vn 0.1490 -0.9870 -0.0606
vn -0.0369 -0.9993 -0.0036
vn -0.0245 -0.9920 0.1237
vn -0.0854 0.9017 0.4238
vn -0.4328 0.8725 0.2268
vn 0.1078 0.9704 -0.2161
vn 0.1401 0.9159 0.3763
vn 0.2552 0.9546 0.1538
vn 0.0794 0.0401 0.9960
vn 0.2618 -0.9169 0.3013
vn -0.5580 0.0471 0.8285
vn 0.6459 -0.6937 -0.3186
vn 0.3777 -0.9042 0.1993
vn 0.8414 0.0416 0.5387
vn -0.1976 -0.9087 -0.3677
vn -0.4087 -0.1198 -0.9048
vn -0.2175 -0.6737 -0.7062
vn 0.2005 -0.7057 -0.6796
vn 0.0576 -0.0192 -0.9982
vn -0.0854 -0.9663 -0.2429
vn -0.5819 -0.7438 0.3287
vn -0.4934 -0.8638 0.1018
vn -0.3829 -0.8999 -0.2088
vn -0.7514 -0.2840 -0.5956
vn -0.2589 -0.9657 -0.0214
vn -0.8924 -0.3661 0.2638
vn -0.8531 0.4665 0.2337
vn -0.8556 -0.4114 -0.3141
vn 0.4372 0.0327 -0.8987
vn -0.6379 0.6893 -0.3435
vn -0.5103 0.3450 -0.7878
vn -0.1180 0.5750 -0.8096
vn -0.2023 0.8137 -0.5449
vn -0.4205 -0.7154 0.5580
vn -0.2848 -0.0216 -0.9583
vn 0.8679 0.4686 -0.1650
vn 0.6483 0.7485 -0.1394
vn 0.7952 0.5151 0.3200
vn 0.3368 0.8057 0.4873
vn 0.3207 0.5499 0.7712
vn 0.8745 0.0830 0.4779
vn 0.9984 0.0571 -0.0046
vn 0.8851 0.0444 -0.4632
vn 0.0617 0.5755 0.8155
vn -0.1767 0.7727 0.6097
vn -0.2802 0.7556 0.5921
vn -0.5930 0.4945 0.6355
vn -0.6177 0.0374 0.7855
vn -0.0346 -0.9994 -0.0021
vn 0.1146 -0.9912 -0.0662
vn -0.2542 0.9629 0.0905
vn -0.4144 0.9010 0.1282
vn -0.9356 0.1975 -0.2925
vn -0.1719 0.9702 -0.1709
vn 0.4194 0.0542 0.9062
vn -0.0269 -0.6129 0.7897
vn 0.4855 0.1379 0.8633
vn -0.0758 0.3307 0.9407
vn -0.2835 0.3378 0.8975
vn 0.0746 -0.9578 0.2774
vn 0.8249 -0.5190 -0.2242
vn 0.8501 -0.5235 0.0569
vn 0.5373 -0.8140 0.2206
vn 0.6653 -0.5154 -0.5401
vn 0.7791 -0.0198 -0.6265
vn 0.0683 -0.4979 -0.8646
vn 0.0961 -0.9298 -0.3554
vn 0.3816 -0.5450 -0.7465
vn 0.0038 0.0042 -1.0000
vn -0.3659 -0.8751 -0.3167
vt 0.595869 0.033671
vt 0.521666 0.093852
vt 0.505721 0.020541
vt 0.396845 0.137512
vt 0.404005 0.078032
vt 0.523929 0.167328
vt 0.398097 0.203871
vt 0.569359 0.192800
vt 0.625000 0.178578
vt 0.606712 0.295181
vt 0.400758 0.014397
vt 0.540075 0.340331
vt 0.534848 0.266625
vt 0.612440 0.424284
vt 0.523749 0.414363
vt 0.569717 0.515937
vt 0.507119 0.498047
vt 0.399994 0.267212
vt 0.622059 0.535817
vt 0.504106 0.577370
vt 0.588370 0.613627
vt 0.501337 0.656570
vt 0.559952 0.684525
vt 0.485478 0.732148
vt 0.405996 0.609158
vt 0.404730 0.672669
vt 0.406566 0.545524
vt 0.608481 0.718894
vt 0.465898 0.813339
vt 0.625000 0.874612
vt 0.520043 0.949130
vt 0.526504 0.870987
vt 0.354369 0.517011
vt 0.317579 0.693753
vt 0.269652 0.523907
vt 0.152812 0.656211
vt 0.185194 0.742067
vt 0.755691 0.667600
vt 0.684169 0.580734
vt 0.866667 0.637094
vt 0.841849 0.706297
vt 0.702476 0.500000
vt 0.405202 0.924916
vt 0.394569 0.817813
vt 0.400486 0.748537
vt 0.400126 1.000000
vt 0.384332 0.485475
vt 0.378990 0.609451
vt 0.387802 0.363700
vt 0.377984 0.224755
vt 0.406683 0.341606
vt 0.407008 0.424984
vt 0.376972 0.396417
vt 0.383709 0.047895
vt 0.596204 0.111218
vt 0.407116 0.483643
vt 0.625000 0.343750
vt 0.388119 1.000000
vt 0.384977 0.927947
vt 0.598973 0.728617
vt 0.592567 0.981132
vt 0.494243 1.000000
vt 0.139251 0.552896
vt 0.820669 0.551850
vt 0.369053 0.773137
s 0
f 4/1/1 24/2/1 3/3/1
f 24/2/2 47/4/2 46/5/2
f 25/6/3 48/7/3 47/4/3
f 25/6/4 23/8/4 48/7/4
f 34/9/5 7/10/5 23/8/5
f 3/3/6 46/5/6 13/11/6
f 7/10/7 21/12/7 20/13/7
f 21/12/8 8/14/8 22/15/8
f 22/15/9 14/16/9 15/17/9
f 22/15/10 8/14/10 14/16/10
f 23/8/11 20/13/11 42/18/11
f 8/14/12 33/19/12 14/16/12
f 15/17/13 14/16/13 26/20/13
f 26/20/14 27/21/14 28/22/14
f 28/22/15 29/23/15 16/24/15
f 40/25/16 28/22/16 41/26/16
f 39/27/17 26/20/17 40/25/17
f 30/28/18 17/29/18 16/24/18
f 36/30/19 19/31/19 18/32/19
f 10/33/20 32/34/20 31/35/20
f 31/35/21 32/34/21 1/36/21
f 32/34/22 2/37/22 1/36/22
f 36/38/23 30/28/23 35/39/23
f 5/40/24 4/41/24 36/38/24
f 8/42/25 35/39/25 33/19/25
f 35/39/26 30/28/26 27/21/26
f 33/19/27 35/39/27 27/21/27
f 17/29/28 38/43/28 37/44/28
f 12/45/29 37/44/29 32/34/29
f 19/31/30 13/46/30 38/43/30
f 10/47/31 39/27/31 11/48/31
f 11/48/32 12/45/32 32/34/32
f 41/26/33 16/24/33 12/45/33
f 42/18/34 43/49/34 6/50/34
f 20/13/35 44/51/35 42/18/35
f 42/18/36 44/51/36 43/49/36
f 45/52/37 10/47/37 43/49/37
f 22/15/38 45/52/38 44/51/38
f 43/49/39 31/53/39 6/50/39
f 13/11/40 46/5/40 1/54/40
f 46/5/41 47/4/41 1/54/41
f 47/4/42 48/7/42 6/50/42
f 23/8/43 42/18/43 48/7/43
f 1/54/44 47/4/44 6/50/44
f 3/3/45 24/2/45 46/5/45
f 4/1/46 5/55/46 24/2/46
f 24/2/47 25/6/47 47/4/47
f 9/56/48 45/52/48 22/15/48 15/17/48
f 5/55/49 34/9/49 23/8/49
f 23/8/50 7/10/50 20/13/50
f 7/10/51 8/14/51 21/12/51
f 7/10/52 34/57/52 8/14/52
f 1/58/53 2/59/53 38/43/53 13/46/53
f 20/13/54 21/12/54 44/51/54
f 26/20/55 14/16/55 27/21/55
f 14/16/56 33/19/56 27/21/56
f 28/22/57 27/21/57 29/23/57
f 29/23/58 27/21/58 30/28/58
f 16/24/59 29/23/59 30/28/59
f 41/26/60 28/22/60 16/24/60
f 40/25/61 26/20/61 28/22/61
f 39/27/62 15/17/62 26/20/62
f 30/28/63 18/32/63 17/29/63
f 30/60/64 36/30/64 18/32/64
f 36/30/65 4/61/65 19/31/65
f 19/31/66 4/61/66 3/62/66
f 19/31/67 3/62/67 13/46/67
f 6/63/68 31/35/68 1/36/68
f 10/33/69 11/48/69 32/34/69
f 34/64/70 36/38/70 35/39/70
f 34/64/71 5/40/71 36/38/71
f 25/6/72 24/2/72 5/55/72 23/8/72
f 8/42/73 34/64/73 35/39/73
f 12/45/74 17/29/74 37/44/74
f 37/44/75 38/43/75 2/59/75
f 16/24/76 17/29/76 12/45/76
f 17/29/77 18/32/77 38/43/77
f 18/32/78 19/31/78 38/43/78
f 37/44/79 2/59/79 32/65/79
f 11/48/80 39/27/80 40/25/80
f 11/48/81 40/25/81 41/26/81
f 11/48/82 41/26/82 12/45/82
f 10/47/83 9/56/83 39/27/83
f 9/56/84 15/17/84 39/27/84
f 44/51/85 45/52/85 43/49/85
f 31/53/86 43/49/86 10/47/86
f 45/52/87 9/56/87 10/47/87
f 21/12/88 22/15/88 44/51/88
f 6/50/89 48/7/89 42/18/89
